<mxfile host="app.diagrams.net" agent="Mozilla/5.0 (Windows NT 10.0; Win64; x64) AppleWebKit/537.36 (KHTML, like Gecko) Chrome/128.0.0.0 YaBrowser/24.10.0.0 Safari/537.36" version="25.0.1">
  <diagram name="Страница — 1" id="RjDKxzOwE1cn85HmaROs">
    <mxGraphModel dx="1007" dy="1725" grid="0" gridSize="10" guides="1" tooltips="1" connect="1" arrows="1" fold="1" page="0" pageScale="1" pageWidth="827" pageHeight="1169" math="0" shadow="0">
      <root>
        <mxCell id="0" />
        <mxCell id="1" parent="0" />
        <mxCell id="TJB5VOWsFreeemDdmijg-93" value="Элшатұлы Нұрсұлтан" style="shape=rect;rounded=1;html=1;whiteSpace=wrap;align=center;" vertex="1" parent="1">
          <mxGeometry x="840" y="-34" width="114" height="40" as="geometry" />
        </mxCell>
        <mxCell id="TJB5VOWsFreeemDdmijg-99" style="edgeStyle=elbowEdgeStyle;curved=0;rounded=0;orthogonalLoop=1;jettySize=auto;html=1;elbow=vertical;fontSize=12;startSize=8;endSize=8;" edge="1" parent="1" source="TJB5VOWsFreeemDdmijg-95" target="TJB5VOWsFreeemDdmijg-96">
          <mxGeometry relative="1" as="geometry">
            <Array as="points">
              <mxPoint x="772" y="115" />
            </Array>
          </mxGeometry>
        </mxCell>
        <mxCell id="TJB5VOWsFreeemDdmijg-101" value="Выбор товара" style="edgeLabel;html=1;align=center;verticalAlign=middle;resizable=0;points=[];fontSize=12;" vertex="1" connectable="0" parent="TJB5VOWsFreeemDdmijg-99">
          <mxGeometry x="0.1838" y="-3" relative="1" as="geometry">
            <mxPoint x="-14" y="-3" as="offset" />
          </mxGeometry>
        </mxCell>
        <mxCell id="TJB5VOWsFreeemDdmijg-112" style="edgeStyle=elbowEdgeStyle;curved=0;rounded=0;orthogonalLoop=1;jettySize=auto;html=1;elbow=vertical;fontSize=12;startSize=8;endSize=8;" edge="1" parent="1" source="TJB5VOWsFreeemDdmijg-95" target="TJB5VOWsFreeemDdmijg-96">
          <mxGeometry relative="1" as="geometry">
            <Array as="points">
              <mxPoint x="779" y="329" />
            </Array>
          </mxGeometry>
        </mxCell>
        <mxCell id="TJB5VOWsFreeemDdmijg-113" value="Выбор&lt;div&gt;способа&lt;/div&gt;&lt;div&gt;оплаты&lt;/div&gt;" style="edgeLabel;html=1;align=center;verticalAlign=middle;resizable=0;points=[];fontSize=12;" vertex="1" connectable="0" parent="TJB5VOWsFreeemDdmijg-112">
          <mxGeometry x="-0.5511" y="1" relative="1" as="geometry">
            <mxPoint x="33" y="5" as="offset" />
          </mxGeometry>
        </mxCell>
        <mxCell id="TJB5VOWsFreeemDdmijg-95" value="Пользователь" style="shape=umlLifeline;perimeter=lifelinePerimeter;whiteSpace=wrap;html=1;container=1;dropTarget=0;collapsible=0;recursiveResize=0;outlineConnect=0;portConstraint=eastwest;newEdgeStyle={&quot;edgeStyle&quot;:&quot;elbowEdgeStyle&quot;,&quot;elbow&quot;:&quot;vertical&quot;,&quot;curved&quot;:0,&quot;rounded&quot;:0};" vertex="1" parent="1">
          <mxGeometry x="667" y="22" width="100" height="644" as="geometry" />
        </mxCell>
        <mxCell id="TJB5VOWsFreeemDdmijg-106" style="edgeStyle=elbowEdgeStyle;curved=0;rounded=0;orthogonalLoop=1;jettySize=auto;html=1;elbow=vertical;fontSize=12;startSize=8;endSize=8;" edge="1" parent="1" source="TJB5VOWsFreeemDdmijg-96" target="TJB5VOWsFreeemDdmijg-98">
          <mxGeometry relative="1" as="geometry">
            <Array as="points">
              <mxPoint x="952" y="211" />
            </Array>
          </mxGeometry>
        </mxCell>
        <mxCell id="TJB5VOWsFreeemDdmijg-107" value="Проверка&lt;div&gt;доступности&lt;/div&gt;&lt;div&gt;товаров&lt;/div&gt;" style="edgeLabel;html=1;align=center;verticalAlign=middle;resizable=0;points=[];fontSize=12;" vertex="1" connectable="0" parent="TJB5VOWsFreeemDdmijg-106">
          <mxGeometry x="-0.4347" relative="1" as="geometry">
            <mxPoint x="-10" y="-1" as="offset" />
          </mxGeometry>
        </mxCell>
        <mxCell id="TJB5VOWsFreeemDdmijg-110" style="edgeStyle=elbowEdgeStyle;curved=0;rounded=0;orthogonalLoop=1;jettySize=auto;html=1;elbow=vertical;fontSize=12;startSize=8;endSize=8;" edge="1" parent="1" source="TJB5VOWsFreeemDdmijg-96" target="TJB5VOWsFreeemDdmijg-95">
          <mxGeometry relative="1" as="geometry">
            <Array as="points">
              <mxPoint x="773" y="289" />
            </Array>
          </mxGeometry>
        </mxCell>
        <mxCell id="TJB5VOWsFreeemDdmijg-111" value="Уведомление&lt;div&gt;о доступности&lt;/div&gt;" style="edgeLabel;html=1;align=center;verticalAlign=middle;resizable=0;points=[];fontSize=12;" vertex="1" connectable="0" parent="TJB5VOWsFreeemDdmijg-110">
          <mxGeometry x="0.2541" y="-2" relative="1" as="geometry">
            <mxPoint x="19" y="1" as="offset" />
          </mxGeometry>
        </mxCell>
        <mxCell id="TJB5VOWsFreeemDdmijg-114" style="edgeStyle=elbowEdgeStyle;curved=0;rounded=0;orthogonalLoop=1;jettySize=auto;html=1;elbow=horizontal;fontSize=12;startSize=8;endSize=8;" edge="1" parent="1" source="TJB5VOWsFreeemDdmijg-96" target="TJB5VOWsFreeemDdmijg-97">
          <mxGeometry relative="1" as="geometry">
            <Array as="points">
              <mxPoint x="891" y="355" />
            </Array>
          </mxGeometry>
        </mxCell>
        <mxCell id="TJB5VOWsFreeemDdmijg-115" value="Отправка&lt;div&gt;данных для&lt;/div&gt;&lt;div&gt;оплаты&lt;/div&gt;" style="edgeLabel;html=1;align=center;verticalAlign=middle;resizable=0;points=[];fontSize=12;" vertex="1" connectable="0" parent="TJB5VOWsFreeemDdmijg-114">
          <mxGeometry x="-0.269" y="1" relative="1" as="geometry">
            <mxPoint x="19" as="offset" />
          </mxGeometry>
        </mxCell>
        <mxCell id="TJB5VOWsFreeemDdmijg-118" style="edgeStyle=elbowEdgeStyle;curved=0;rounded=0;orthogonalLoop=1;jettySize=auto;html=1;elbow=vertical;fontSize=12;startSize=8;endSize=8;" edge="1" parent="1" source="TJB5VOWsFreeemDdmijg-96" target="TJB5VOWsFreeemDdmijg-95">
          <mxGeometry relative="1" as="geometry">
            <Array as="points">
              <mxPoint x="780" y="417" />
            </Array>
          </mxGeometry>
        </mxCell>
        <mxCell id="TJB5VOWsFreeemDdmijg-119" value="Уведомление&lt;div&gt;об оплате&lt;/div&gt;" style="edgeLabel;html=1;align=center;verticalAlign=middle;resizable=0;points=[];fontSize=12;" vertex="1" connectable="0" parent="TJB5VOWsFreeemDdmijg-118">
          <mxGeometry x="0.1273" y="-2" relative="1" as="geometry">
            <mxPoint x="10" y="1" as="offset" />
          </mxGeometry>
        </mxCell>
        <mxCell id="TJB5VOWsFreeemDdmijg-120" style="edgeStyle=elbowEdgeStyle;curved=0;rounded=0;orthogonalLoop=1;jettySize=auto;html=1;elbow=vertical;fontSize=12;startSize=8;endSize=8;" edge="1" parent="1" source="TJB5VOWsFreeemDdmijg-96" target="TJB5VOWsFreeemDdmijg-98">
          <mxGeometry relative="1" as="geometry">
            <Array as="points">
              <mxPoint x="973" y="436" />
            </Array>
          </mxGeometry>
        </mxCell>
        <mxCell id="TJB5VOWsFreeemDdmijg-121" value="Запрос на&lt;div&gt;сборку заказа&lt;/div&gt;" style="edgeLabel;html=1;align=center;verticalAlign=middle;resizable=0;points=[];fontSize=12;" vertex="1" connectable="0" parent="TJB5VOWsFreeemDdmijg-120">
          <mxGeometry x="-0.4436" relative="1" as="geometry">
            <mxPoint x="-6" as="offset" />
          </mxGeometry>
        </mxCell>
        <mxCell id="TJB5VOWsFreeemDdmijg-124" style="edgeStyle=elbowEdgeStyle;curved=0;rounded=0;orthogonalLoop=1;jettySize=auto;html=1;elbow=vertical;fontSize=12;startSize=8;endSize=8;" edge="1" parent="1" source="TJB5VOWsFreeemDdmijg-96" target="TJB5VOWsFreeemDdmijg-95">
          <mxGeometry relative="1" as="geometry">
            <Array as="points">
              <mxPoint x="777" y="506" />
            </Array>
          </mxGeometry>
        </mxCell>
        <mxCell id="TJB5VOWsFreeemDdmijg-125" value="Уведомление&lt;div&gt;о завершении&lt;/div&gt;&lt;div&gt;заказа&lt;/div&gt;" style="edgeLabel;html=1;align=center;verticalAlign=middle;resizable=0;points=[];fontSize=12;" vertex="1" connectable="0" parent="TJB5VOWsFreeemDdmijg-124">
          <mxGeometry x="0.3825" y="-1" relative="1" as="geometry">
            <mxPoint x="26" y="2" as="offset" />
          </mxGeometry>
        </mxCell>
        <mxCell id="TJB5VOWsFreeemDdmijg-96" value="Система" style="shape=umlLifeline;perimeter=lifelinePerimeter;whiteSpace=wrap;html=1;container=1;dropTarget=0;collapsible=0;recursiveResize=0;outlineConnect=0;portConstraint=eastwest;newEdgeStyle={&quot;edgeStyle&quot;:&quot;elbowEdgeStyle&quot;,&quot;elbow&quot;:&quot;vertical&quot;,&quot;curved&quot;:0,&quot;rounded&quot;:0};" vertex="1" parent="1">
          <mxGeometry x="787" y="22" width="100" height="649" as="geometry" />
        </mxCell>
        <mxCell id="TJB5VOWsFreeemDdmijg-116" style="edgeStyle=elbowEdgeStyle;curved=0;rounded=0;orthogonalLoop=1;jettySize=auto;html=1;elbow=vertical;fontSize=12;startSize=8;endSize=8;" edge="1" parent="1" source="TJB5VOWsFreeemDdmijg-97" target="TJB5VOWsFreeemDdmijg-96">
          <mxGeometry relative="1" as="geometry">
            <Array as="points">
              <mxPoint x="892" y="392" />
            </Array>
          </mxGeometry>
        </mxCell>
        <mxCell id="TJB5VOWsFreeemDdmijg-117" value="Ответ об оплате" style="edgeLabel;html=1;align=center;verticalAlign=middle;resizable=0;points=[];fontSize=12;" vertex="1" connectable="0" parent="TJB5VOWsFreeemDdmijg-116">
          <mxGeometry x="0.2812" y="-3" relative="1" as="geometry">
            <mxPoint x="21" y="3" as="offset" />
          </mxGeometry>
        </mxCell>
        <mxCell id="TJB5VOWsFreeemDdmijg-97" value="Платежный&lt;div&gt;шлюз&lt;/div&gt;" style="shape=umlLifeline;perimeter=lifelinePerimeter;whiteSpace=wrap;html=1;container=1;dropTarget=0;collapsible=0;recursiveResize=0;outlineConnect=0;portConstraint=eastwest;newEdgeStyle={&quot;edgeStyle&quot;:&quot;elbowEdgeStyle&quot;,&quot;elbow&quot;:&quot;vertical&quot;,&quot;curved&quot;:0,&quot;rounded&quot;:0};" vertex="1" parent="1">
          <mxGeometry x="900" y="22" width="100" height="641" as="geometry" />
        </mxCell>
        <mxCell id="TJB5VOWsFreeemDdmijg-108" style="edgeStyle=elbowEdgeStyle;curved=0;rounded=0;orthogonalLoop=1;jettySize=auto;html=1;elbow=vertical;fontSize=12;startSize=8;endSize=8;" edge="1" parent="1" source="TJB5VOWsFreeemDdmijg-98" target="TJB5VOWsFreeemDdmijg-96">
          <mxGeometry relative="1" as="geometry">
            <Array as="points">
              <mxPoint x="943" y="258" />
            </Array>
          </mxGeometry>
        </mxCell>
        <mxCell id="TJB5VOWsFreeemDdmijg-109" value="Ответ о&lt;div&gt;доступности&lt;/div&gt;" style="edgeLabel;html=1;align=center;verticalAlign=middle;resizable=0;points=[];fontSize=12;" vertex="1" connectable="0" parent="TJB5VOWsFreeemDdmijg-108">
          <mxGeometry x="-0.6027" y="2" relative="1" as="geometry">
            <mxPoint x="-8" as="offset" />
          </mxGeometry>
        </mxCell>
        <mxCell id="TJB5VOWsFreeemDdmijg-122" style="edgeStyle=elbowEdgeStyle;curved=0;rounded=0;orthogonalLoop=1;jettySize=auto;html=1;elbow=vertical;fontSize=12;startSize=8;endSize=8;" edge="1" parent="1" source="TJB5VOWsFreeemDdmijg-98" target="TJB5VOWsFreeemDdmijg-96">
          <mxGeometry relative="1" as="geometry">
            <Array as="points">
              <mxPoint x="942" y="478" />
            </Array>
          </mxGeometry>
        </mxCell>
        <mxCell id="TJB5VOWsFreeemDdmijg-123" value="Уведомление&lt;div&gt;о готовности&lt;/div&gt;" style="edgeLabel;html=1;align=center;verticalAlign=middle;resizable=0;points=[];fontSize=12;" vertex="1" connectable="0" parent="TJB5VOWsFreeemDdmijg-122">
          <mxGeometry x="-0.445" y="-3" relative="1" as="geometry">
            <mxPoint x="11" y="2" as="offset" />
          </mxGeometry>
        </mxCell>
        <mxCell id="TJB5VOWsFreeemDdmijg-98" value="Склад" style="shape=umlLifeline;perimeter=lifelinePerimeter;whiteSpace=wrap;html=1;container=1;dropTarget=0;collapsible=0;recursiveResize=0;outlineConnect=0;portConstraint=eastwest;newEdgeStyle={&quot;edgeStyle&quot;:&quot;elbowEdgeStyle&quot;,&quot;elbow&quot;:&quot;vertical&quot;,&quot;curved&quot;:0,&quot;rounded&quot;:0};" vertex="1" parent="1">
          <mxGeometry x="1016" y="22" width="100" height="621" as="geometry" />
        </mxCell>
        <mxCell id="TJB5VOWsFreeemDdmijg-102" style="edgeStyle=elbowEdgeStyle;curved=0;rounded=0;orthogonalLoop=1;jettySize=auto;html=1;elbow=vertical;fontSize=12;startSize=8;endSize=8;" edge="1" parent="1">
          <mxGeometry relative="1" as="geometry">
            <mxPoint x="717" y="141.16" as="sourcePoint" />
            <mxPoint x="837" y="141.16" as="targetPoint" />
            <Array as="points">
              <mxPoint x="772" y="141.16" />
            </Array>
          </mxGeometry>
        </mxCell>
        <mxCell id="TJB5VOWsFreeemDdmijg-103" value="Добавление&lt;div&gt;в корзину&lt;/div&gt;" style="edgeLabel;html=1;align=center;verticalAlign=middle;resizable=0;points=[];fontSize=12;" vertex="1" connectable="0" parent="TJB5VOWsFreeemDdmijg-102">
          <mxGeometry x="0.1838" y="-3" relative="1" as="geometry">
            <mxPoint x="-15" y="-3" as="offset" />
          </mxGeometry>
        </mxCell>
        <mxCell id="TJB5VOWsFreeemDdmijg-104" style="edgeStyle=elbowEdgeStyle;curved=0;rounded=0;orthogonalLoop=1;jettySize=auto;html=1;elbow=vertical;fontSize=12;startSize=8;endSize=8;" edge="1" parent="1">
          <mxGeometry relative="1" as="geometry">
            <mxPoint x="718" y="178" as="sourcePoint" />
            <mxPoint x="838" y="178" as="targetPoint" />
            <Array as="points">
              <mxPoint x="773" y="178" />
            </Array>
          </mxGeometry>
        </mxCell>
        <mxCell id="TJB5VOWsFreeemDdmijg-105" value="Подтверждение&lt;div&gt;заказа&lt;/div&gt;" style="edgeLabel;html=1;align=center;verticalAlign=middle;resizable=0;points=[];fontSize=12;" vertex="1" connectable="0" parent="TJB5VOWsFreeemDdmijg-104">
          <mxGeometry x="0.1838" y="-3" relative="1" as="geometry">
            <mxPoint x="-15" y="-4" as="offset" />
          </mxGeometry>
        </mxCell>
      </root>
    </mxGraphModel>
  </diagram>
</mxfile>
